<mxfile host="app.diagrams.net" modified="2023-09-08T21:38:28.285Z" agent="Mozilla/5.0 (Windows NT 10.0; Win64; x64) AppleWebKit/537.36 (KHTML, like Gecko) Chrome/116.0.0.0 Safari/537.36" etag="UBNNDlOuaJM205InjQwM" version="21.7.2" type="device">
  <diagram name="Page-1" id="rX9MbxgPCLcSvJVr2fdq">
    <mxGraphModel dx="1725" dy="452" grid="1" gridSize="10" guides="1" tooltips="1" connect="1" arrows="1" fold="1" page="1" pageScale="1" pageWidth="850" pageHeight="1100" math="0" shadow="0">
      <root>
        <mxCell id="0" />
        <mxCell id="1" parent="0" />
        <mxCell id="cy0feQZiFJCqmZOPK3GZ-1" value="" style="shape=image;verticalLabelPosition=bottom;labelBackgroundColor=default;verticalAlign=top;aspect=fixed;imageAspect=0;image=https://d2908q01vomqb2.cloudfront.net/7719a1c782a1ba91c031a682a0a2f8658209adbf/2021/06/22/ka2.png;" parent="1" vertex="1">
          <mxGeometry x="-63" y="56" width="977" height="483" as="geometry" />
        </mxCell>
        <mxCell id="cy0feQZiFJCqmZOPK3GZ-2" value="" style="dashed=0;outlineConnect=0;html=1;align=center;labelPosition=center;verticalLabelPosition=bottom;verticalAlign=top;shape=mxgraph.webicons.github;gradientColor=#DFDEDE" parent="1" vertex="1">
          <mxGeometry x="200" y="70" width="82.4" height="82.4" as="geometry" />
        </mxCell>
        <mxCell id="cy0feQZiFJCqmZOPK3GZ-3" value="" style="endArrow=classic;startArrow=classic;html=1;rounded=0;" parent="1" target="cy0feQZiFJCqmZOPK3GZ-2" edge="1">
          <mxGeometry width="50" height="50" relative="1" as="geometry">
            <mxPoint x="240" y="190" as="sourcePoint" />
            <mxPoint x="510" y="280" as="targetPoint" />
          </mxGeometry>
        </mxCell>
        <mxCell id="SbwWQKJP1HVxob9BikeY-1" value="&lt;font style=&quot;font-size: 15px;&quot;&gt;Dev Stack&lt;/font&gt;" style="rounded=0;whiteSpace=wrap;html=1;strokeColor=none;fillColor=#fafafa;" vertex="1" parent="1">
          <mxGeometry x="565" y="384" width="90" height="30" as="geometry" />
        </mxCell>
        <mxCell id="SbwWQKJP1HVxob9BikeY-2" value="&lt;font style=&quot;font-size: 15px;&quot;&gt;Prod Stack&lt;/font&gt;" style="rounded=0;whiteSpace=wrap;html=1;strokeColor=none;fillColor=#fafafa;" vertex="1" parent="1">
          <mxGeometry x="783" y="384" width="90" height="30" as="geometry" />
        </mxCell>
        <mxCell id="SbwWQKJP1HVxob9BikeY-4" value="" style="shape=image;verticalLabelPosition=bottom;labelBackgroundColor=default;verticalAlign=top;aspect=fixed;imageAspect=0;image=data:image/png,iVBORw0KGgoAAAANSUhEUgAAAE0AAABzCAYAAADdeY9tAAAAAXNSR0IArs4c6QAAAARnQU1BAACxjwv8YQUAAAAJcEhZcwAADsMAAA7DAcdvqGQAACLFSURBVHhe7V33d1zHdb7YxWLRO0AQjR1sYhFJUWyiRPUW+9jRcWI7Os6fEZ8cOfktic/Jn5BfYkW2pMRxlWVVSmIRRbFXACRIorCgl0XdXSDfd2fm7dsCEAKL4kNect60O3fu3Llz5868t2TW1NTUjFiYHpuQ+EBEYj3DMh2N29I7hCwEr4e/PMjKypKsnGwJLSqVYEm+ZOWFJSE0VMau98lEc4eMHm+TeGRCZlgzM63VZvR+8EvCV8dGmsXD30SJEVLpOGC9nw6Cl52lrzTw4zlIYsLGfkC9n2d/RIEFAhIsLZDCbSslvLJWghBeQmionDx/TSL7T0vv/xyW6K0hyGtaZmLQOBA1dMxTG9j+LX2TZYa4WuhqAKxkYJGveFawtAkzim8KMASNEwg278e3sWRl4JmAhKNCMOXmSSF5QIFlByUALcupr5CKH+ySgt3rJbyqzgqNuFkBmTh7RUY+PiV9vzoo8fFJya4okmxINhDKBgIJ+4h6XBBSOEkFxSVCJjxXkEQwkdVq2zYj2PaeJgMy9eEn4ScF4WaCmamYRK8PSHxkXDWt8sdPSOHeRyR3dUMGoX1CoR2SrHC25K1vkILtTRIozIPBy7BMXX9ahIytSuWDHRieTYWimQJbcjtwOuYoLACcFjkCLk5h1mJJfGhMIocvyMSlmygMSMXfPSFFT26Q3Kb6hNCyUDEOoQ1D0/rfOQzDVyzFT62X0u/tkmBZEahQaOzAkZ0N/Eyk43LYiWVGuB3N2er95ak4c9XNBQncWPcg5PC5RL5skfjolFRCaIV7jdACipEKbBfA0LCeA/m5qml3KwQzlP3/C7mSVRCGPQuJBI2IONFO9JmF5gHREKjaECI3CxPPFYjjwmz1c+VTw3zozEXzdvT9IYGrmwL+2kcSACsZiEIlJRh05hBoaB+YYCJ/3j4U0oRGcLbRQ0vgPxiA8Tr9crFfBClCIwqCYiC22QcW3I5rIye4NE1TZxLBRt7zgYRZVpgnNFef7uvN0vJBghQRJGsaKz0EJJLyDyDMssg8oWk9Hygx570HG1RXZlGYNJuWgAdbcnONPk1odEuSGzzAwvOGnqxyGTSNCDwhusPxLDr6AEGqBFIO7Ff1aqj3nYMSKiuQwl1NUvLCVr0akXjihiGj7tlC9aT9QNqItNymPZhjPvx9zdavljuas9DyF6e29wAVqXzH+4Zl6A9fSeT4FZmejOHAvtdcDaXfciSEFsBBNbepRvI3LsWhPSwz06DqCCf17svQXyFOGh4TtlAdRovnK8/S3cekvSRjgilGFgXow2YtJA7SHqIFL+enpZBG2CR9zacjEzJ2sk0mr/WKhLLNLccTswntk5PS985hifaP6M1lFk/5ro9pS93lHaBoBsLwzriYNvMHZR4jTGR5zrOCGlCLo9d1JMAyg5vA8wUaFMSGae0BBQRWAlyWoG1YkLmOpTqH5MEWOL6Vt+i0ZOHwHlpcKhU/pNDW+4RGQOVUa5eMHmmWwQ9OSmwggkJUQcMMQoI9Q9qAKdMuTcZVaMJXC+aVfw9sPcsgsCwK2kpd0axANWmfzJk0wDbnQ8sdOZtxeMlcm6cpsTwzpW2YwsP81UIWZ4WCEqouldIXt0j+1lWSs2yRT2hAit3sl8nLN2TsbLu+mbLN7TO9exMrac0x71hiOtHC4LlWJuXqEHPEHCivZUyJBdbxL6VqyhM0fKA4BsGUkw/Th59r09pRcHugwdNS8OBh2wRXYLA4X/I3LIXAaiS7usQnNABfpEgsLjN8fadTd3swXd5twFB5t6WUMfxp8mOzdwm+ETner8GuqakCX0lCm46MSwy7RuzmgL5YINkZCk+pmwF4YJPaeVLvKXgezFbuB+DATnHjyW1qkEBujvI00dIp0+NTyrwHjlRS3/MEtE3nm5DOI21aVjgHdq1Mr/0DBbnJyzPa2SMT59olcrRVpkfGDVUlPBtnbhH4weY0stwp+LFcIcp8eKrceISwBMpe2yPZcHWi1/tl4NeHjI3FTHMQ2sgjgQSLXD4JlHgKZEQEqh8XOEQjQ+gzu7RQCh5vktzV9RBeeUJoXA7uxUrfO2Cyb0QCIahjNtTSEvR350pY5rcbHo4WwUYkFyiYVgSU6V/kseFMT8TUtQnD2Db8y+vK4PiFDun62S9lqqtPAmHwkhtCAzRCE6XIJBNK0uvMQoIz1pi0w3E1CVAcLaZJQKCZQkFOTZlU/miPuhzhNJfjDIT20Unp/dUBmZmMSqimRHIaqvSFKSlysF5XlnH78CA5Z1hj8MrZTDOWEt0G0JoZnZTIiasSHx6X8HII7ec/kZxaCO18h3T845sSuzUooapiydvQqMvWe6WoZKwZSQJD35p4D2yvKGUquY45Vz89EZWp9m6JDozqRlAF57boyY0ZhGbfe/a+fUgCeSHsGI1SuGONvkFyTDmiLkFNYk2ie5vSCDNN2omsiRPICgEsuVj3sHT/Yj80ql9yllZJ478aTZs43ykdP3tL4gMjkrtqsVS8tkuyy4tkhq8UVY0NI2kyywCW5QQ/vlhTmjFY8aFRiRw8J+MtN1CcJdU8EWTUNC5Pvix++7DkLC6R4mc2SPl3d0mwokQJ3Ssgm5NtN6X9p/8JJrsk3FgpDVZo4+c6pPOf3lIPvXDrSqn7h9ck1Fg1LyHdCUS7B2XgV5/K8IGL0P4JqXrdHKMoNOesJMAywyXDo1QWlkIWtI5v3O9ZyEMf7IdGHn/VySUfjhcnILuTKW4mOnczwKmlnU/6vsNCmtCIYvDAKaZT/9Ao8mOYexnYpQfMpTBLdkyUuf3dDFz6jKnOVqVd3wRPaK6ArLp0GuP3Axx3tms/P98CNwoJeRhIX54EYN1rm5EJtE+dXcYZhPRt8ISQysesQksK9w0Mi8a7uq8dp4EZemYe0oT2bWiYB5SVm1Y/H9+u/NK6TxeaYxzhvvPq36n8/bvi+82Q7U+7R9qx4QnNY5cJF+43WCY1Qv+eDG18P1liX85QEDS2/GW0aaaBRbyfQKYsYy72K5+ruj8Agdm+reNlMoA0oRFPeb+/HCaBOy8qHy7B6L7OohMAOzUdu/7TNc3DBeuKT4kjcY8DnohtIGicsn/ZunvOj55MGBJ9at5C+kaAoLhA0mME/yAOZGffu6D92I5TwCtCQo92jO81Pwh8qcRbWu1XGUhMX/qBXT9UPiTBorAUbF4qhTvXSqC4wNcmae7nBtObgVma6SRBGLz66f6Pj2Syow8H9ipp+Dcc2GvL9JaDB/bYwKjkNdVJ5d/ukeyqEj3upILqK/5qV7PYF1fqWGOcCTM2OCoj+0/LOPrn708qfjzX190fnZS+tw+iVQxMl2IA1ZLFD3ZTKRvOTK/KAR5JOLZOgfdd+rR5gK3Tcszo9OiERI5elvjgmLmE/DmFZq+G3vgviXUP6UuNgk1LJYADPi8tU8GtIK8mHcUU8cF7PEZolCZf1PF6faKtWy9jg0V5ENpeKeLX3avTLiHbZPiDE9Lz1gFzc8uvu8O8KSUl7YkJA5q1YgjYXhkhOCzWGtY8Pg14ZEw9szNxMjopM7FpCa+okcZ//3tzCXmuQzp++guZ6uxTYQX42ySuUTMLlkqCpAoAGZdPBeWHOI5nIvJqzuQSAE2enoopvZzFpVL1+pNS+NRG348vCGAkeu2WjJ2+IpEDFyU2PG6Yg2AMQdsJcyxA1ivx9ehmLYsSQsYJTZFQlEBlHZFZwj4sPkJ2dZlUvr5PguWFKqz+tz6TmL68po0xFPTJB3Yr22USJOp9tZYHLVGEBIrNAiy+w4MMssFH0Z61krd+iWTXVfqEBoK8reSPDqJdfXrdbShqbTKklid6TJRbbjTrlbkJcMCKRIkdk2Tl50reI2YZxkfG9GXPDLRQdwFHUJu5PCIbO1DZMvjL/XnXnqBlrsLGdB24TWIFko9QXblkV5ZIoCjfJzQCB0lbob9OsZCoNWD7SSp3ZQSWJ+UtTRpuCk21N93TUXDtgKdmAbh6v8UJJA1PqgbNA5Z5919Io51bJQosI7h2qTRcfSo4HNLx0UzWtL5hiXb0yHjrdfOeETjkI7EAEj1peSKrYPXKYCHJl7wh7HQ52EzCKxZLrHdYr7W5U9JeKJIPmEuME8w5+g7NQ/e1AxJftORgx82pr5RgYa6MN3dJ9HqfvvYz36IYQmYsyWD6xJMJzbDUAvPYpEgzr6kW2lYpgbJCv00L2G85Lsrgh/ZbDnbGnjwmSdFS9Rd5GQLS2gQijMYkb229FO1eJ0VPb5aJli4Z+fSUjJ3t0Dt/I2Q/IaQteV0eLs2E8uEgkebuFywtlMJda6Rw+2r97mLwvaMyeuySTFztlkCI/hYJkQYiBo8ugX0i2Do3UcySB9pRvoctfcF9y1GTEBq3/fFz/GrotPS/e1ii0ApD3OyBJmWAOaN9LHF66Jl8A1hO05NTUvDocil98VEp/e4OGTtzRQZ+d0RGv27TX7mpYL1WYJCUfJ0YuijyEqYXT/MpSAgkVFkkxc9vluJ9G7HTVUjfLz+X4S/Oy0TzdbhLvOtPcOvA9JvCs0KiM20DoYWxi5f/YNdsn1pZ5/btQ0Cf0bdCYTiUNIS0F455N1ST5SAsMAHh89OGyXYs8/Md6KRWSp/brL/mo9AG//eQjBxulVBFkdZlVxbrdxKc4gRN0k9MhibIo+ZRTmFjQvi6b7LtlroqJa9slZJnNsNNgdDe3C8jhy7KFMxAwaYl+lYrWJxnP0w0VEnH8W3KXN7Ux8cmZeJip0RvDOpPsCt/vMf7FV5mob1zWLLL8qVoxyophlpS/WmQlagdgx+0HA/tGscPfnkUOdIig+8f10EUP71Ryr6/S19G8xODkQPNko/TRulLWyR3Va1+H5G8LgA2mwpqMcALNXXsRJsMfXJGBVf6ncek5FkIDZrW++anMnq0RYVZ9r0dkr9xGcrL4QvGk1a56yJ1PARO/NAfscxPXPW+hCya7RWeEsIjC7tXsLwIBrZGcpbXaggxrEA6JbCMdeEVdfDmjcHMroDB5Jc2qkGJWSVxagoFFaopVxuRRG+lDf6ylBAmP0tqcJwqtauAu70ZOp+a0jFk65Erp6HajAH8+eko3758Uli6CIqDMejXBX7+sZhsnAQ6G+wUS034NeQ8g4cbNMZXtYJB/1jgGicHFCbfqwJXg4/OXIF9mMC2iZ3RgZLWBJ62D+K6dploZgwB4Hu0Pe4VMgotGTBgSnG+wYEmkwfEIoORgpeJzqyBkYm9MBf469NozRKwibkxJ8SWmPg0obEiYfDvAKhi6tQikAFHjVFiNd0B+AkkJiep9A76UIqqrS6TgBShce0aRE1laDAvUGZTOVbK9nl3IE0m5NtPPimzAGAHGQSfeXma0dnhLaBjN8WkAcbNHweos5kM/CwQMlO6a/RTCHlCS5SnphbYNQXjSSohsnsCZNEFgNcbdlXfFvSNwPhhNkPwkcmgadapVEPImJkFgtc2hXXN4HEntH2QZEYcTY1NoZrUbwyGP6+pT4Ce0Lw+bWJB/cwCd5NWEvhG5BtTCsxeMx/Q1ikk0jVNt1nDzR0P1nZm7JoDpBwnicKFgW3v1yQmk/le2CgciwopJFKEZvwSjwlmqPvzDqaZSSDMwa+Hzoe9p5pfYJRIO5i9K0wYcU3StrtN8PgBXQRDXRMKGWyaH4BMfJXiPAIjB2jjr50T5kufQSNMLttou3mAw9NICcwdgK9/mLWlfkgTmpGslSqdUN648iaX/yRYxhCTGQ1I40BsOgW+7zyYBG7CyBhvW9Po3S7ENDZfK5I+BAiaCT1IAfJPXvirF/KXQmvW/klfx0HaydS9Ww4ctrx/Cqz3nUMSyDVfdxc8vlZvLvXK2g9+d9slwT0P6Xr7e/aqDB+8IGEcfHn7UP79neY+jVdDB5tx6K6Rop2rJYTDtH7injLy5FOJzTgcCEJ/yXKxS0aPXZZYz6CUvrpNip99VG9Ven/xqUSONOu7y+J9GyR3VZ1eQVEQRv8BjmcFX98oZzI+PCojB87JRMsN7Tfj7z1VaBjUyMcnVWj8jj67skiZ0JN+mtD48DNgOuYhPx4Z0/eUk9d6JG9dg5S+8KheDfFNF4UWOdKqtyh6z8UXFTggKygfNgmaSavPlmtMLZ2KSbwvol9hc73wmqmYV0O1ldL3Jr/KviCTnb2Sy9uK8kJ99afnSaVB4qRjskrU0bfA9xJRtI8Nj0mwpEAqf/SEFKa+LHZCi3x0QnrePSTRW2DGB5xkdpLox/VC+2KTKJrxfBbe3MakcOtyKX15q5TxEvJ0m/RDaGNfQTuGxoz22gFoRANsGutfD9iX5olocHSHZ1kwYG5uX9gCjd4kIQitn0L77Ky+KzDXU9oEpidBX1O2DxspaFe2QDcQTGhOXYURWtLLYgIYjnb0yuSFdhk5egnqyUFxTbMajdmLYtp8GtieCI65+AyWZ5X+7C9/y0qZ6uyR0eOXZOpKt/6bZEqf7VxTR9ZxreDvG2BxTIRnMEtvZflOMm9tg96BRQ5fNC9Xbg6YnZDgxuGASaWZ0pcDJPVqDJNCmkWPN0l4NZZ5je+3URwo7UR8kCo/ZH4XpOUm8sDPvGoVCvw4Ph6oScGiXP2FCW0KPz3gGyn+lIdv0pPb2oQ3zSZKQGoB8IiKYmoTBxZE4FcBXLJx2LP4+JTRFgdMupWgkZ9ZG2u5rw2Al5k51aUSKC3QZZ4Qmh84nrsF7D+JB2QgTBald7xASOsDQOJ3q4MU+slC0wqfM3iXwLvEJF2Eu0vdgO6KHAn7wZK8272YTcT0kVnTHsKccJsTwUPIBA+FtgB4KLQFwEOhLQAeCm0B8FBoC4CHQlsAPBTaAuCh0BYAD4W2AHgotAXAQ6EtAB4KbQEwb6HxuihT+EuEO+X9tldD5iqM7wBt0Esr03HAdv6XJDz/eMj2Qvi/rdCmp2ckGo0K8CQWjyPP12B83xCU7OxsCYUQ+BvJgPknZsiMHxxTbPdtA/mIRmM6nlgsJkHwnRMKSZCfsX4Dwc0qNBIdHRuXW909cv1Gt8aDQ0Myxl/KQTDFRYVSXl4qVZXlUluzSCoryrWMwiM44U1NRWUSAp+cnJScnBzJz8tVYd9voFDIW2fXDbl85RrGdEsWg+9VK5ZhHCWY/NC873ozCo0D7u7pkyvXOuTs+Ytyrb1Lbnb3yvDwMIQ2IdOoLykuktLSYqmurJAVy5bI2qaVsnL5UikuLsTMBZUGZ/XmrR65cfOWjE9MSE11ldTXLZb8/DwdQKpW3kug0MjX8VNnZf+BL+XU6fOy6ZG18sxTe2TZ0nrJy82dt7YF33jjjX+2aQU32BOnzskf3v9EfvPen+Viy2UZiYzqsgxisHwrFhkdk/bO63Kh+ZK0XrqiS7e0pBiCLJEwNIoQiUTky69PyJ8//kKaWy9LOByWutpFyqDTyPsFTtMutFySQ0e+liPgq6iwUFatXKarhatgvkJL45wCuw7NOHH6nBw5dgLLKipNIPzSc0/JD1/7jvzkR3+N8Jr8zfdflX1P7JSlS+qlf3BIZ/DzQ0fk6rVOFWgcNmwAy5nL4Up7O5b2sERjUWWczPkZdHlOCLUhNbg2cwHriUf7NFdbKgV5i8ensWJ8v9zzATc45QUhU99pQpuCkWzv6JLWy1ekC+u+HJqzdfNGefn5p+Wl5/eZAAG+/MLT8tzTT8j2LZswYwVy41a3nDp7Qa6h7chIRGIQ/sDAkPT298sghMqNxNm3KOyl2xjIEBmPxeIyAbs3OjamWj0MGoyZZxvizyU4CoF9jMEOs51pO659+jchv3CNQFho6gisj4IXmhOaItpi2nc/pAltcnJKDSWNfgkMO+3VhvVrEFZLFYx9QX6+FBQUwD5Vy0aUP7Fru8YUHDWup69PhrEsOdCBwWEZHZ3AgGYgkCnpHxhUAzwErSMzBGoDmRoeGdEN58rVDl3K5y+2wCxckrYr7dID+zoxMam4fsExzcAdfnx8HHa4H3a4U5phTkiDbXv7B7RtsriTJeVMK2lxAodgu9s7rsOWd6pNHhkZVe10kGEbg/pi1oz6zugscVBT0Jy83LDODoEdFEGojfW1smfnY1IJu0DmFi+qxgAmYOta5cujxzEBV1XzSOerY6fA0Ajwt+nGUVVZKX0Y1FUw14aJ6rx+SyeLy5uTF8oJ6cTV1y6W1auWq/3hxsPdV5cVYAQTdAubFAXVDlPANCeAQikoyJfGulpZt2alrGlaIeVlZdrGDyo+K3xVmKvtcu5Ci26Cubk5smbVClm/tkkKoRRZQSPUNKFxNmnQqVEcaF//oA6q5VKbVJaXSR5cBm7P9M+45ul2bH10o9RAWKMY7IqljbrMOEPcKNh+cgpuCv50XudnSyKrsMs21tdJAbTj7PkW2MMzcuFiKwY7KuNoy2VGzeQE5kBwZSUl2L17ZAJ0dj62VV0bMs9BUiNOwywcPX5KbkEjdTlj8mKYdE5wS2ubag6X44b15pMx1THvYZx0LkXu8gexSXATvHGzW5Y01Erd4hqMkz/5Ib6B9N0Tf7LRQdeNGxDUFent7YerEcHSgn3q69c4MjoKmxVXYgVwH8pKS6W+frEsh8AqoQkc0AhwuBypWaOj4zrrdYsXSRP8onWrV6nGRCJj8u5v/iiffHZIWtquyCJo3pKGOjUJ1C66JqMQ7CXwcQNCm4xOyYZ1a1Ro1H76jl8cPip/+uBTCO4iNDCoPDStWA6eilX4LbDNFBo1iXU0H5faruqGxb42PrJGJ7yz6zo2sq/kt3/4ACaiXVfV9m2bZMumR7SdW2GENKFR6nQZOFNcopxx7oLtnV3o7JqqbXvnDenCUqB96u7BmoeAqHWFsHXUQC6fMP/pZqQHh0ZUeLSHj23ZrDvuSgiO/0hnB2gcwKAp2JpFVdhc9snO7Vtk04b1WL4rpBGDKoZbwAGOQ3tyMRC1n0UF0LopOXO+WQ59+bW6EdQImoln4XdtgCB0AtEnBcbJoWFfickYGDQrhxvWMuz8K1csRdmQHD5yQr6A0Hoh1OVLGmXv7u2gt10FSxfJD+lCw+BzgUSfqqigUA0gjTYFR+I07r29fXBLulWQHXYJcilTUDyWcJa4jDG9KtyuGzelorxcZ273jq0qQNo/LrkuLFnu0NxsXnxmr6yFFtZCI2kjaTNJ9yyEQ+3Oy82TTcCj+ZiYmIKvdRI79nl1Z3Zu36oTsvOxLaqlNTVVsGGlZgeEgAlrV6/UXZU8M9A/K0Pf9ENJixrYgBWze8djSms17BltmbOfDjKeZ6jKNPDstKamUk8EtEdcDrRVt3p61cVobh1WV6G6qlJ3vb6+AdkBTamrhR2AJukZj+dVdBqHT6RnWGjudP60ak098F6B60LNrqqqkAYYbbWjMAPU3j5oKE0C7QltLbjHEo2qzaTmUdPZP49xj6xr0tMGNw+dQNBcXFMtT+3ZoXaWE7+0sV5dEkIQS7kLG8/nB4/K1Q7wjg2Jzu4LzzwJoW1TE0E5kFYqJGkakahpDGSSWkNbZAa0WAflYi4dCos2bQw2axBLjDNOe0NN4AxRiM0wxPT7irB0Vyxr1GVDTczODin9UCio/lRH500ss1Z1qk/AUaYxZvrMORzj0J4CLwFd2hge3yIjY2qD6L5wGe5+fBvsaq1uYE4zOA7axcqKMhVsFewotZs+KN0b7rK94LEbK4eaT81+fNujOFY1SgUUJsXn9SDJT6NU6S50Xr8JO9Kh2zcJcV2vW7MKTu4GtRt0av/qpWfluy8/J8/ue0JWLF+iNuPshWbdrqmRtIcE36bjAZmh7SRQ0Fwenx08AoO+Xz7ef1AOf3VcTp45r4PjINW59BEibe7ItFesoykoxORyEpzAGFNoXH6c5KVLGvS8zJ2ftKggFBSXPdvSJNGxpymh1tEBT12WDjyhkQh3m+to9Ls/fiBvvftbee/DT7FzjmhjCpRLirNKA/rI2tVqKF/BSeH5p/eirEEFTlvRjeU7Mcn/OQN0ve9oDTAXyAoosxTKb/74ofz3b/8kH37yuZyHQR+CT0ftXra0QXY9vhWTskeWNNapxnCZO9Alz82KZSCaaXizDRpeGcYTh+YWqZ17bt9e2K9l6k9+uP8LOXHmnJqHTEuT4AnNzQwlfBbachiO6dHjJ/XsOIZtX22KBf4jAbRZvOapgO+2BLaC/hoFNIXzJWdsGgNyLDM2aZ1ijbmRHIN/xuUXxVGHzL8K+/a9V1+QV158Rm3L03t3qXbnhe0n+eDR+FlZeoeXn5enuzY1hraKS5iTrz0hphZegtP8yecH5de/f1+OnTytNplHK2cLd2EDeQ4Tsx07O/MD2NSOnTyDXf1r3UQok1RIKqFgGCjlLizR5pY23Z2oPTS+buYYm2DSnDUdDBjVS0ksAXZm2Dfg2hKH4+LV04Xmy9pPXl5YNm9YJy8++6Q8jx2UR7PtWzepDeTxjIPkRQKBRybSphtAu0OhcYlzc+JJgsA+iDOJdjyKfbj/gPzuvQ/kHBzo/oEBc2BHqICto7dPN2YbHHTu4FQIjpuuEHmj2XET4SBNaFwG3GVodHuwc/3+/Y+UwM2bPcowfTAXonA2u2Fzjp08C/+tXeKY2VJ477weIh23NPmMYxdlTA0hExFs/XSc6bCa41id9ksHmCcP7mQ9qKdto2NL5kmA/xQPndiioiLdLclzB/xGHqN6YNBJm2Xsi+fRFpQf/fqUHDtxVp10AttzxsOYXNoz7rQUHjWObght2kksUa403vgoPZ/g0vw0Am0Oz3RU5QHMIh1UNuYJgbshA5cV78oOfnlUvsIRhrcS9Kyf3P24rAMDNMB0Wnn4Z6DR5rKlq0AtoMtCl4GGnpNBTWQ5teYG+j1z7oJuDgcxYXRGqcllmEhuSHRpSJ9uBI879BdpQrhMaZdYxuMZ7814YuAuXo3TxjNP7VZNYr/X0KaxoR4njNVSXV2huy5XCP041VzwxWMa3S56DLpyrODShEZ15y7DNU9jPQhnljPIkwAN92WcCigEOpynzlyQi62XVWC0B1TxXfBx2Ek4J6wbC/27ax2dOhB623SEqYXcPfmegds9hUt/jGdP4rEv3s81X7qs2sglrxqEY1sjzoPcDemDsT375k0GVwVjnh87u26qhh4DDTrPdDXIG3d+aiz5b8NRqQHavZ5CQz15okPPsy55YX0PhE1NXATXiiuIfKiMUoVG5uhHLYJvRgZppCk87ojq2GIGbqqW9OhOlwNCnH0eX7iL0g/jccptFJz5bgycdpFX5v0QWh6Yo71aD4eUM9sNYVKbKGCjzZd1yVWB2ce2bAT9JrVXV+nv0QXCMuaRKB8DKikuVr+Q/hY3Lbovl6+0Y9DXZADOMa/YaSNffO5JPfdyDFwlrTjrNsL7px1bBBw99mHZ8rTCU087HPrrMElDWNJcIfQW3Olg1hcrRKS7cenyVV1K9M4pANoJGmXOComQ4epqHLQxa7zK5o7mVJkd0O8hjVYcUYawzGlP+DJjFc58XGKt0Nyr7R2qIaNjE3pZkEvaEDy1iQNiGwqxu7cX2lGr10q0f3QJqGndmAx1WKGlPOpxomlPyQvPtPTu6cLQ1qpgmy9hAjrVQacto6a5K3ryzInjfV4PNLcANKjZ2x7doK7QnEIjEIECohHnVTX9MAqOh3iqM3c22gIevmngaTD9QMGxLSeA10ZcruyMAqHPxzZ0cUiX2kyhUuDUUL6g4cRkB82SoPtAWjz+6NUU2pI/BgqPfHJCeTXEWxUupXzwpoYeWsSNy89PHObH0aJJYh2BMWnRfXEXjxxXLv/HDYczl9AIZMrEJk0G6VjSJgWDZmtnnSOYCdzgHC0aY6Kzjb/OMam0QVeRFFzs2qf35adDHonDfvif3hD8bYijQByTSgODw9r0Pm8rtExAehn4vmNwjNwD0ncRRP4Ped9eOZXWH2sAAAAASUVORK5CYII=;" vertex="1" parent="1">
          <mxGeometry x="696" y="417" width="53.5" height="79.9" as="geometry" />
        </mxCell>
        <mxCell id="SbwWQKJP1HVxob9BikeY-5" value="&lt;font style=&quot;font-size: 15px;&quot;&gt;Hom Stack&lt;/font&gt;" style="rounded=0;whiteSpace=wrap;html=1;strokeColor=none;fillColor=#fafafa;" vertex="1" parent="1">
          <mxGeometry x="677.75" y="384" width="90" height="30" as="geometry" />
        </mxCell>
      </root>
    </mxGraphModel>
  </diagram>
</mxfile>
